<svg width="38" height="26" viewBox="0 0 38 26" fill="none" xmlns="http://www.w3.org/2000/svg">
<path d="M8.028 20.412L0 12.276L8.028 4.176H13.86L5.76 12.276L13.86 20.412H8.028Z" fill="black"/>
<path d="M18.8454 25.2V0H28.1694C30.1854 0 31.8534 0.336 33.1734 1.008C34.4934 1.68 35.4774 2.604 36.1254 3.78C36.7734 4.956 37.0974 6.276 37.0974 7.74C37.0974 9.132 36.7854 10.416 36.1614 11.592C35.5374 12.744 34.5654 13.68 33.2454 14.4C31.9254 15.096 30.2334 15.444 28.1694 15.444H23.4534V25.2H18.8454ZM23.4534 11.7H27.8814C29.4894 11.7 30.6414 11.352 31.3374 10.656C32.0574 9.936 32.4174 8.964 32.4174 7.74C32.4174 6.492 32.0574 5.52 31.3374 4.824C30.6414 4.104 29.4894 3.744 27.8814 3.744H23.4534V11.7Z" fill="black"/>
</svg>
